STARTFONT 2.1
FONT -cassio-cherrypie-Bold-R-Normal--13-120-96-96-C-100-ISO10646-1
SIZE 12 96 96
FONTBOUNDINGBOX 6 13 0 -2
STARTPROPERTIES 15
POINT_SIZE 120
PIXEL_SIZE 13
RESOLUTION_X 96
RESOLUTION_Y 96
FONT_ASCENT 11
FONT_DESCENT 2
AVERAGE_WIDTH 100
SPACING "C"
_GBDFED_INFO "Edited with gbdfed 1.6."
FAMILY_NAME "cherrypie"
CHARSET_REGISTRY "ISO10646"
CHARSET_ENCODING "1"
WEIGHT_NAME "Bold"
COPYRIGHT "Copyright (c) 2020 Cássio Hawak (heyitscassio@cock.li)"
FOUNDRY "cassio"
ENDPROPERTIES
CHARS 201
STARTCHAR EXCLAMATION MARK
ENCODING 33
SWIDTH 375 0
DWIDTH 6 0
BBX 6 13 0 -2
BITMAP
00
00
20
20
20
20
20
20
00
20
20
00
00
ENDCHAR
STARTCHAR QUOTATION MARK
ENCODING 34
SWIDTH 375 0
DWIDTH 6 0
BBX 6 13 0 -2
BITMAP
00
50
50
50
00
00
00
00
00
00
00
00
00
ENDCHAR
STARTCHAR NUMBER SIGN
ENCODING 35
SWIDTH 375 0
DWIDTH 6 0
BBX 6 13 0 -2
BITMAP
00
50
50
F8
50
50
50
50
F8
50
50
00
00
ENDCHAR
STARTCHAR DOLLAR SIGN
ENCODING 36
SWIDTH 375 0
DWIDTH 6 0
BBX 6 13 0 -2
BITMAP
00
00
20
F8
A8
A0
E0
38
28
A8
F8
20
00
ENDCHAR
STARTCHAR PERCENT SIGN
ENCODING 37
SWIDTH 375 0
DWIDTH 6 0
BBX 6 13 0 -2
BITMAP
00
00
00
00
C8
C8
10
20
40
98
98
00
00
ENDCHAR
STARTCHAR AMPERSAND
ENCODING 38
SWIDTH 375 0
DWIDTH 6 0
BBX 6 13 0 -2
BITMAP
00
00
00
60
90
90
40
68
90
90
68
00
00
ENDCHAR
STARTCHAR APOSTROPHE
ENCODING 39
SWIDTH 375 0
DWIDTH 6 0
BBX 6 13 0 -2
BITMAP
00
20
20
20
00
00
00
00
00
00
00
00
00
ENDCHAR
STARTCHAR LEFT PARENTHESIS
ENCODING 40
SWIDTH 375 0
DWIDTH 6 0
BBX 6 13 0 -2
BITMAP
00
10
20
20
40
40
40
40
40
20
20
10
00
ENDCHAR
STARTCHAR LEFT PARENTHESIS
ENCODING 41
SWIDTH 375 0
DWIDTH 6 0
BBX 6 13 0 -2
BITMAP
00
40
20
20
10
10
10
10
10
20
20
40
00
ENDCHAR
STARTCHAR ASTERISK
ENCODING 42
SWIDTH 375 0
DWIDTH 6 0
BBX 6 13 0 -2
BITMAP
00
00
00
00
00
50
20
F8
20
50
00
00
00
ENDCHAR
STARTCHAR PLUS SIGN
ENCODING 43
SWIDTH 375 0
DWIDTH 6 0
BBX 6 13 0 -2
BITMAP
00
00
00
00
00
20
20
F8
20
20
00
00
00
ENDCHAR
STARTCHAR COMMA
ENCODING 44
SWIDTH 375 0
DWIDTH 6 0
BBX 6 13 0 -2
BITMAP
00
00
00
00
00
00
00
00
00
20
20
40
00
ENDCHAR
STARTCHAR HYPHEN-MINUS
ENCODING 45
SWIDTH 375 0
DWIDTH 6 0
BBX 6 13 0 -2
BITMAP
00
00
00
00
00
00
00
F8
00
00
00
00
00
ENDCHAR
STARTCHAR FULL STOP
ENCODING 46
SWIDTH 375 0
DWIDTH 6 0
BBX 6 13 0 -2
BITMAP
00
00
00
00
00
00
00
00
00
20
20
00
00
ENDCHAR
STARTCHAR SOLIDUS
ENCODING 47
SWIDTH 375 0
DWIDTH 6 0
BBX 6 13 0 -2
BITMAP
00
08
08
10
10
20
20
20
40
40
80
80
00
ENDCHAR
STARTCHAR DIGIT ZERO
ENCODING 48
SWIDTH 375 0
DWIDTH 6 0
BBX 6 13 0 -2
BITMAP
00
00
F8
88
88
98
A8
C8
88
88
F8
00
00
ENDCHAR
STARTCHAR DIGIT ONE
ENCODING 49
SWIDTH 375 0
DWIDTH 6 0
BBX 6 13 0 -2
BITMAP
00
00
20
60
20
20
20
20
20
20
20
00
00
ENDCHAR
STARTCHAR DIGIT TWO
ENCODING 50
SWIDTH 375 0
DWIDTH 6 0
BBX 6 13 0 -2
BITMAP
00
00
F8
08
08
08
F8
80
80
80
F8
00
00
ENDCHAR
STARTCHAR DIGIT THREE
ENCODING 51
SWIDTH 375 0
DWIDTH 6 0
BBX 6 13 0 -2
BITMAP
00
00
F8
08
08
08
78
08
08
08
F8
00
00
ENDCHAR
STARTCHAR DIGIT FOUR
ENCODING 52
SWIDTH 375 0
DWIDTH 6 0
BBX 6 13 0 -2
BITMAP
00
00
48
48
48
48
78
08
08
08
08
00
00
ENDCHAR
STARTCHAR DIGIT FIVE
ENCODING 53
SWIDTH 375 0
DWIDTH 6 0
BBX 6 13 0 -2
BITMAP
00
00
F8
80
80
80
F8
08
08
08
F8
00
00
ENDCHAR
STARTCHAR DIGIT SIX
ENCODING 54
SWIDTH 375 0
DWIDTH 6 0
BBX 6 13 0 -2
BITMAP
00
00
F8
80
80
80
F8
88
88
88
F8
00
00
ENDCHAR
STARTCHAR DIGIT SEVEN
ENCODING 55
SWIDTH 375 0
DWIDTH 6 0
BBX 6 13 0 -2
BITMAP
00
00
F8
08
08
08
08
08
08
08
08
00
00
ENDCHAR
STARTCHAR DIGIT EIGHT
ENCODING 56
SWIDTH 375 0
DWIDTH 6 0
BBX 6 13 0 -2
BITMAP
00
00
70
88
88
88
F8
88
88
88
70
00
00
ENDCHAR
STARTCHAR DIGIT NINE
ENCODING 57
SWIDTH 375 0
DWIDTH 6 0
BBX 6 13 0 -2
BITMAP
00
00
F8
88
88
88
F8
08
08
08
F8
00
00
ENDCHAR
STARTCHAR COLON
ENCODING 58
SWIDTH 375 0
DWIDTH 6 0
BBX 6 13 0 -2
BITMAP
00
00
00
00
40
40
00
00
00
40
40
00
00
ENDCHAR
STARTCHAR SEMICOLON
ENCODING 59
SWIDTH 375 0
DWIDTH 6 0
BBX 6 13 0 -2
BITMAP
00
00
00
00
20
20
00
00
00
20
20
40
00
ENDCHAR
STARTCHAR LESS-THAN SIGN
ENCODING 60
SWIDTH 375 0
DWIDTH 6 0
BBX 6 13 0 -2
BITMAP
00
00
00
00
08
10
20
40
20
10
08
00
00
ENDCHAR
STARTCHAR EQUALS SIGN
ENCODING 61
SWIDTH 375 0
DWIDTH 6 0
BBX 6 13 0 -2
BITMAP
00
00
00
00
00
00
F8
00
F8
00
00
00
00
ENDCHAR
STARTCHAR GREATHER-THAN SIGN
ENCODING 62
SWIDTH 375 0
DWIDTH 6 0
BBX 6 13 0 -2
BITMAP
00
00
00
00
40
20
10
08
10
20
40
00
00
ENDCHAR
STARTCHAR QUSTION MARK
ENCODING 63
SWIDTH 375 0
DWIDTH 6 0
BBX 6 13 0 -2
BITMAP
00
00
F8
88
88
08
38
20
00
20
20
00
00
ENDCHAR
STARTCHAR COMERCIAL AT
ENCODING 64
SWIDTH 375 0
DWIDTH 6 0
BBX 6 13 0 -2
BITMAP
00
00
F8
88
B8
A8
A8
A8
B8
C0
70
00
00
ENDCHAR
STARTCHAR LATIN CAPITAL LETTER A
ENCODING 65
SWIDTH 375 0
DWIDTH 6 0
BBX 6 13 0 -2
BITMAP
00
00
F8
88
88
88
88
F8
88
88
88
00
00
ENDCHAR
STARTCHAR LATIN CAPITAL LETTER B
ENCODING 66
SWIDTH 375 0
DWIDTH 6 0
BBX 6 13 0 -2
BITMAP
00
00
F0
88
88
88
F8
88
88
88
F0
00
00
ENDCHAR
STARTCHAR LATIN CAPITAL LETTER C
ENCODING 67
SWIDTH 375 0
DWIDTH 6 0
BBX 6 13 0 -2
BITMAP
00
00
F8
88
80
80
80
80
80
88
F8
00
00
ENDCHAR
STARTCHAR LATIN CAPITAL LETTER D
ENCODING 68
SWIDTH 375 0
DWIDTH 6 0
BBX 6 13 0 -2
BITMAP
00
00
F0
88
88
88
88
88
88
88
F0
00
00
ENDCHAR
STARTCHAR LATIN CAPITAL LETTER E
ENCODING 69
SWIDTH 375 0
DWIDTH 6 0
BBX 6 13 0 -2
BITMAP
00
00
F8
80
80
80
F8
80
80
80
F8
00
00
ENDCHAR
STARTCHAR LATIN CAPITAL LETTER F
ENCODING 70
SWIDTH 375 0
DWIDTH 6 0
BBX 6 13 0 -2
BITMAP
00
00
F8
80
80
80
F8
80
80
80
80
00
00
ENDCHAR
STARTCHAR LATIN CAPITAL LETTER G
ENCODING 71
SWIDTH 375 0
DWIDTH 6 0
BBX 6 13 0 -2
BITMAP
00
00
F8
88
80
80
98
88
88
88
F8
00
00
ENDCHAR
STARTCHAR LATIN CAPITAL LETTER H
ENCODING 72
SWIDTH 375 0
DWIDTH 6 0
BBX 6 13 0 -2
BITMAP
00
00
88
88
88
88
F8
88
88
88
88
00
00
ENDCHAR
STARTCHAR LATIN CAPITAL LETTER I
ENCODING 73
SWIDTH 375 0
DWIDTH 6 0
BBX 6 13 0 -2
BITMAP
00
00
70
20
20
20
20
20
20
20
70
00
00
ENDCHAR
STARTCHAR LATIN CAPITAL LETTER J
ENCODING 74
SWIDTH 375 0
DWIDTH 6 0
BBX 6 13 0 -2
BITMAP
00
00
38
08
08
08
08
08
08
08
78
00
00
ENDCHAR
STARTCHAR LATIN CAPITAL LETTER K
ENCODING 75
SWIDTH 375 0
DWIDTH 6 0
BBX 6 13 0 -2
BITMAP
00
00
88
88
88
90
F0
90
88
88
88
00
00
ENDCHAR
STARTCHAR LATIN CAPITAL LETTER L
ENCODING 76
SWIDTH 375 0
DWIDTH 6 0
BBX 6 13 0 -2
BITMAP
00
00
80
80
80
80
80
80
80
80
F8
00
00
ENDCHAR
STARTCHAR LATIN CAPITAL LETTER M
ENCODING 77
SWIDTH 375 0
DWIDTH 6 0
BBX 6 13 0 -2
BITMAP
00
00
F8
A8
A8
A8
A8
A8
A8
A8
A8
00
00
ENDCHAR
STARTCHAR LATIN CAPITAL LETTER N
ENCODING 78
SWIDTH 375 0
DWIDTH 6 0
BBX 6 13 0 -2
BITMAP
00
00
C8
C8
A8
A8
98
98
88
88
88
00
00
ENDCHAR
STARTCHAR LATIN CAPITAL LETTER O
ENCODING 79
SWIDTH 375 0
DWIDTH 6 0
BBX 6 13 0 -2
BITMAP
00
00
F8
88
88
88
88
88
88
88
F8
00
00
ENDCHAR
STARTCHAR LATIN CAPITAL LETTER P
ENCODING 80
SWIDTH 375 0
DWIDTH 6 0
BBX 6 13 0 -2
BITMAP
00
00
F8
88
88
88
F8
80
80
80
80
00
00
ENDCHAR
STARTCHAR LATIN CAPITAL LETTER Q
ENCODING 81
SWIDTH 375 0
DWIDTH 6 0
BBX 6 13 0 -2
BITMAP
00
00
F8
88
88
88
88
88
88
88
F8
18
08
ENDCHAR
STARTCHAR LATIN CAPITAL LETTER R
ENCODING 82
SWIDTH 375 0
DWIDTH 6 0
BBX 6 13 0 -2
BITMAP
00
00
F8
88
88
88
F8
90
98
88
88
00
00
ENDCHAR
STARTCHAR LATIN CAPITAL LETTER S
ENCODING 83
SWIDTH 375 0
DWIDTH 6 0
BBX 6 13 0 -2
BITMAP
00
00
F8
88
80
80
F8
08
08
88
F8
00
00
ENDCHAR
STARTCHAR LATIN CAPITAL LETTER T
ENCODING 84
SWIDTH 375 0
DWIDTH 6 0
BBX 6 13 0 -2
BITMAP
00
00
F8
20
20
20
20
20
20
20
20
00
00
ENDCHAR
STARTCHAR LATIN CAPITAL LETTER U
ENCODING 85
SWIDTH 375 0
DWIDTH 6 0
BBX 6 13 0 -2
BITMAP
00
00
88
88
88
88
88
88
88
88
F8
00
00
ENDCHAR
STARTCHAR LATIN CAPITAL LETTER V
ENCODING 86
SWIDTH 375 0
DWIDTH 6 0
BBX 6 13 0 -2
BITMAP
00
00
88
88
88
88
88
88
50
50
20
00
00
ENDCHAR
STARTCHAR LATIN CAPITAL LETTER W
ENCODING 87
SWIDTH 375 0
DWIDTH 6 0
BBX 6 13 0 -2
BITMAP
00
00
A8
A8
A8
A8
A8
A8
A8
A8
F8
00
00
ENDCHAR
STARTCHAR LATIN CAPITAL LETTER X
ENCODING 88
SWIDTH 375 0
DWIDTH 6 0
BBX 6 13 0 -2
BITMAP
00
00
88
88
88
50
20
50
88
88
88
00
00
ENDCHAR
STARTCHAR LATIN CAPITAL LETTER Y
ENCODING 89
SWIDTH 375 0
DWIDTH 6 0
BBX 6 13 0 -2
BITMAP
00
00
88
88
88
F8
20
20
20
20
20
00
00
ENDCHAR
STARTCHAR LATIN CAPITAL LETTER Z
ENCODING 90
SWIDTH 375 0
DWIDTH 6 0
BBX 6 13 0 -2
BITMAP
00
00
F8
08
10
10
20
40
40
80
F8
00
00
ENDCHAR
STARTCHAR LEFT SQUARE BRACKET
ENCODING 91
SWIDTH 375 0
DWIDTH 6 0
BBX 6 13 0 -2
BITMAP
00
70
40
40
40
40
40
40
40
40
40
70
00
ENDCHAR
STARTCHAR REVERSE SOLIDUS
ENCODING 92
SWIDTH 375 0
DWIDTH 6 0
BBX 6 13 0 -2
BITMAP
00
80
80
40
40
20
20
20
10
10
08
08
00
ENDCHAR
STARTCHAR RIGHT SQUARE BRACKET
ENCODING 93
SWIDTH 375 0
DWIDTH 6 0
BBX 6 13 0 -2
BITMAP
00
38
08
08
08
08
08
08
08
08
08
38
00
ENDCHAR
STARTCHAR CIRCUMFLEX ACCENT
ENCODING 94
SWIDTH 375 0
DWIDTH 6 0
BBX 6 13 0 -2
BITMAP
00
00
20
50
88
00
00
00
00
00
00
00
00
ENDCHAR
STARTCHAR LOW LINE
ENCODING 95
SWIDTH 375 0
DWIDTH 6 0
BBX 6 13 0 -2
BITMAP
00
00
00
00
00
00
00
00
00
00
F8
00
00
ENDCHAR
STARTCHAR GRAVE ACCENT
ENCODING 96
SWIDTH 375 0
DWIDTH 6 0
BBX 6 13 0 -2
BITMAP
00
00
20
20
10
00
00
00
00
00
00
00
00
ENDCHAR
STARTCHAR LATIN SMALL LETTER A
ENCODING 97
SWIDTH 375 0
DWIDTH 6 0
BBX 6 13 0 -2
BITMAP
00
00
00
00
F8
88
88
88
88
98
E8
00
00
ENDCHAR
STARTCHAR LATIN SMALL LETTER B
ENCODING 98
SWIDTH 375 0
DWIDTH 6 0
BBX 6 13 0 -2
BITMAP
00
00
80
80
F8
88
88
88
88
88
F8
00
00
ENDCHAR
STARTCHAR LATIN SMALL LETTER C
ENCODING 99
SWIDTH 375 0
DWIDTH 6 0
BBX 6 13 0 -2
BITMAP
00
00
00
00
F8
88
80
80
80
88
F8
00
00
ENDCHAR
STARTCHAR LATIN SMALL LETTER D
ENCODING 100
SWIDTH 375 0
DWIDTH 6 0
BBX 6 13 0 -2
BITMAP
00
00
08
08
F8
88
88
88
88
88
F8
00
00
ENDCHAR
STARTCHAR LATIN SMALL LETTER E
ENCODING 101
SWIDTH 375 0
DWIDTH 6 0
BBX 6 13 0 -2
BITMAP
00
00
00
00
F8
88
88
F8
80
88
F8
00
00
ENDCHAR
STARTCHAR LATIN SMALL LETTER F
ENCODING 102
SWIDTH 375 0
DWIDTH 6 0
BBX 6 13 0 -2
BITMAP
00
00
38
20
70
20
20
20
20
20
20
00
00
ENDCHAR
STARTCHAR LATIN SMALL LETTER G
ENCODING 103
SWIDTH 375 0
DWIDTH 6 0
BBX 6 13 0 -2
BITMAP
00
00
00
00
F8
88
88
88
88
88
F8
08
78
ENDCHAR
STARTCHAR LATIN SMALL LETTER H
ENCODING 104
SWIDTH 375 0
DWIDTH 6 0
BBX 6 13 0 -2
BITMAP
00
00
80
80
F8
88
88
88
88
88
88
00
00
ENDCHAR
STARTCHAR LATIN SMALL LETTER I
ENCODING 105
SWIDTH 375 0
DWIDTH 6 0
BBX 6 13 0 -2
BITMAP
00
20
20
00
70
20
20
20
20
20
70
00
00
ENDCHAR
STARTCHAR LATIN SMALL LETTER J
ENCODING 106
SWIDTH 375 0
DWIDTH 6 0
BBX 6 13 0 -2
BITMAP
00
20
20
00
60
20
20
20
20
20
20
20
E0
ENDCHAR
STARTCHAR LATIN SMALL LETTER K
ENCODING 107
SWIDTH 375 0
DWIDTH 6 0
BBX 6 13 0 -2
BITMAP
00
00
80
88
88
88
88
F0
88
88
88
00
00
ENDCHAR
STARTCHAR LATIN SMALL LETTER L
ENCODING 108
SWIDTH 375 0
DWIDTH 6 0
BBX 6 13 0 -2
BITMAP
00
00
E0
20
20
20
20
20
20
20
38
00
00
ENDCHAR
STARTCHAR LATIN SMALL LETTER M
ENCODING 109
SWIDTH 375 0
DWIDTH 6 0
BBX 6 13 0 -2
BITMAP
00
00
00
00
F8
A8
A8
A8
A8
A8
A8
00
00
ENDCHAR
STARTCHAR LATIN SMALL LETTER N
ENCODING 110
SWIDTH 375 0
DWIDTH 6 0
BBX 6 13 0 -2
BITMAP
00
00
00
00
F8
88
88
88
88
88
88
00
00
ENDCHAR
STARTCHAR LATIN SMALL LETTER O
ENCODING 111
SWIDTH 375 0
DWIDTH 6 0
BBX 6 13 0 -2
BITMAP
00
00
00
00
F8
88
88
88
88
88
F8
00
00
ENDCHAR
STARTCHAR LATIN SMALL LETTER P
ENCODING 112
SWIDTH 375 0
DWIDTH 6 0
BBX 6 13 0 -2
BITMAP
00
00
00
00
F8
88
88
88
88
88
F8
80
80
ENDCHAR
STARTCHAR LATIN SMALL LETTER Q
ENCODING 113
SWIDTH 375 0
DWIDTH 6 0
BBX 6 13 0 -2
BITMAP
00
00
00
00
F8
88
88
88
88
88
F8
08
08
ENDCHAR
STARTCHAR LATIN SMALL LETTER R
ENCODING 114
SWIDTH 375 0
DWIDTH 6 0
BBX 6 13 0 -2
BITMAP
00
00
00
00
F8
80
80
80
80
80
80
00
00
ENDCHAR
STARTCHAR LATIN SMALL LETTER S
ENCODING 115
SWIDTH 375 0
DWIDTH 6 0
BBX 6 13 0 -2
BITMAP
00
00
00
00
F8
88
80
F8
08
88
F8
00
00
ENDCHAR
STARTCHAR LATIN SMALL LETTER T
ENCODING 116
SWIDTH 375 0
DWIDTH 6 0
BBX 6 13 0 -2
BITMAP
00
00
40
40
F0
40
40
40
40
40
70
00
00
ENDCHAR
STARTCHAR LATIN SMALL LETTER U
ENCODING 117
SWIDTH 375 0
DWIDTH 6 0
BBX 6 13 0 -2
BITMAP
00
00
00
00
88
88
88
88
88
88
F8
00
00
ENDCHAR
STARTCHAR LATIN SMALL LETTER V
ENCODING 118
SWIDTH 375 0
DWIDTH 6 0
BBX 6 13 0 -2
BITMAP
00
00
00
00
88
88
88
88
88
50
20
00
00
ENDCHAR
STARTCHAR LATIN SMALL LETTER W
ENCODING 119
SWIDTH 375 0
DWIDTH 6 0
BBX 6 13 0 -2
BITMAP
00
00
00
00
A8
A8
A8
A8
A8
A8
F8
00
00
ENDCHAR
STARTCHAR LATIN SMALL LETTER X
ENCODING 120
SWIDTH 375 0
DWIDTH 6 0
BBX 6 13 0 -2
BITMAP
00
00
00
00
88
88
50
20
50
88
88
00
00
ENDCHAR
STARTCHAR LATIN SMALL LETTER Y
ENCODING 121
SWIDTH 375 0
DWIDTH 6 0
BBX 6 13 0 -2
BITMAP
00
00
00
00
88
88
88
88
88
88
F8
08
78
ENDCHAR
STARTCHAR LATIN SMALL LETTER Z
ENCODING 122
SWIDTH 375 0
DWIDTH 6 0
BBX 6 13 0 -2
BITMAP
00
00
00
00
F8
08
10
20
40
80
F8
00
00
ENDCHAR
STARTCHAR LEFT CURLY BRACKET
ENCODING 123
SWIDTH 375 0
DWIDTH 6 0
BBX 6 13 0 -2
BITMAP
00
18
20
20
20
20
40
20
20
20
20
18
00
ENDCHAR
STARTCHAR VERTICAL LINE
ENCODING 124
SWIDTH 375 0
DWIDTH 6 0
BBX 6 13 0 -2
BITMAP
00
20
20
20
20
20
20
20
20
20
20
20
00
ENDCHAR
STARTCHAR RIGHT CURLY BRACKET
ENCODING 125
SWIDTH 375 0
DWIDTH 6 0
BBX 6 13 0 -2
BITMAP
00
60
10
10
10
10
08
10
10
10
10
60
00
ENDCHAR
STARTCHAR TILDE
ENCODING 126
SWIDTH 375 0
DWIDTH 6 0
BBX 6 13 0 -2
BITMAP
00
00
00
00
00
64
B4
98
00
00
00
00
00
ENDCHAR
STARTCHAR NO-BREAK SPACE
ENCODING 160
SWIDTH 375 0
DWIDTH 6 0
BBX 6 13 0 -2
BITMAP
00
00
00
00
00
00
00
00
00
88
F8
00
00
ENDCHAR
STARTCHAR INVERTED EXCLAMATION MARK
ENCODING 161
SWIDTH 375 0
DWIDTH 6 0
BBX 6 13 0 -2
BITMAP
00
00
20
20
00
20
20
20
20
20
20
00
00
ENDCHAR
STARTCHAR CENT SIGN
ENCODING 162
SWIDTH 375 0
DWIDTH 6 0
BBX 6 13 0 -2
BITMAP
00
00
20
70
A8
A0
A0
A0
A0
A8
70
20
00
ENDCHAR
STARTCHAR POUND SIGN
ENCODING 163
SWIDTH 375 0
DWIDTH 6 0
BBX 6 13 0 -2
BITMAP
00
00
30
48
40
20
78
20
40
68
98
00
00
ENDCHAR
STARTCHAR CURRENCY SIGN
ENCODING 164
SWIDTH 375 0
DWIDTH 6 0
BBX 6 13 0 -2
BITMAP
00
00
00
84
78
48
48
78
84
00
00
00
00
ENDCHAR
STARTCHAR YEN SIGN
ENCODING 165
SWIDTH 375 0
DWIDTH 6 0
BBX 6 13 0 -2
BITMAP
00
88
88
50
50
50
F8
20
F8
20
20
00
00
ENDCHAR
STARTCHAR BROKEN BAR
ENCODING 166
SWIDTH 375 0
DWIDTH 6 0
BBX 6 13 0 -2
BITMAP
00
20
20
20
20
00
00
00
20
20
20
20
00
ENDCHAR
STARTCHAR SECTION SIGN
ENCODING 167
SWIDTH 375 0
DWIDTH 6 0
BBX 6 13 0 -2
BITMAP
00
60
90
80
40
A0
90
90
50
20
10
90
60
ENDCHAR
STARTCHAR DIARESIS
ENCODING 168
SWIDTH 375 0
DWIDTH 6 0
BBX 6 13 0 -2
BITMAP
00
50
50
00
00
00
00
00
00
00
00
00
00
ENDCHAR
STARTCHAR COPYRIGHT SIGN
ENCODING 169
SWIDTH 375 0
DWIDTH 6 0
BBX 6 13 0 -2
BITMAP
00
00
00
78
84
B4
A4
A4
B4
84
78
00
00
ENDCHAR
STARTCHAR FEMININE ORDINAL INDICATOR
ENCODING 170
SWIDTH 375 0
DWIDTH 6 0
BBX 6 13 0 -2
BITMAP
30
08
38
48
38
00
78
00
00
00
00
00
00
ENDCHAR
STARTCHAR LEFT-POINTING DOUBLE ANGLE QUOTATION MARK
ENCODING 171
SWIDTH 375 0
DWIDTH 6 0
BBX 6 13 0 -2
BITMAP
00
00
00
00
00
00
24
48
90
48
24
00
00
ENDCHAR
STARTCHAR NOT SIGN
ENCODING 172
SWIDTH 375 0
DWIDTH 6 0
BBX 6 13 0 -2
BITMAP
00
00
00
00
00
00
78
08
08
00
00
00
00
ENDCHAR
STARTCHAR SOFT HYPHEN
ENCODING 173
SWIDTH 375 0
DWIDTH 6 0
BBX 6 13 0 -2
BITMAP
00
00
00
00
00
00
00
78
00
00
00
00
00
ENDCHAR
STARTCHAR REGISTERED SIGN
ENCODING 174
SWIDTH 375 0
DWIDTH 6 0
BBX 6 13 0 -2
BITMAP
00
00
00
78
84
B4
B4
A4
B4
84
78
00
00
ENDCHAR
STARTCHAR MACRON
ENCODING 175
SWIDTH 375 0
DWIDTH 6 0
BBX 6 13 0 -2
BITMAP
00
70
00
00
00
00
00
00
00
00
00
00
00
ENDCHAR
STARTCHAR DEGREE SIGN
ENCODING 176
SWIDTH 375 0
DWIDTH 6 0
BBX 6 13 0 -2
BITMAP
00
30
48
48
30
00
00
00
00
00
00
00
00
ENDCHAR
STARTCHAR PLUS-MINUS SIGN
ENCODING 177
SWIDTH 375 0
DWIDTH 6 0
BBX 6 13 0 -2
BITMAP
00
00
00
00
00
20
20
F8
20
20
F8
00
00
ENDCHAR
STARTCHAR SUPERSCRIPT TWO
ENCODING 178
SWIDTH 375 0
DWIDTH 6 0
BBX 6 13 0 -2
BITMAP
00
30
48
10
20
78
00
00
00
00
00
00
00
ENDCHAR
STARTCHAR SUPERSCRIPT THREE
ENCODING 179
SWIDTH 375 0
DWIDTH 6 0
BBX 6 13 0 -2
BITMAP
00
70
08
30
08
70
00
00
00
00
00
00
00
ENDCHAR
STARTCHAR ACUTE ACCENT
ENCODING 180
SWIDTH 375 0
DWIDTH 6 0
BBX 6 13 0 -2
BITMAP
00
10
20
00
00
00
00
00
00
00
00
00
00
ENDCHAR
STARTCHAR MICRO SIGN
ENCODING 181
SWIDTH 375 0
DWIDTH 6 0
BBX 6 13 0 -2
BITMAP
00
00
00
88
88
88
88
88
88
C8
B4
80
80
ENDCHAR
STARTCHAR PILCROW SIGN
ENCODING 182
SWIDTH 375 0
DWIDTH 6 0
BBX 6 13 0 -2
BITMAP
00
78
E8
E8
E8
E8
68
28
28
28
28
00
00
ENDCHAR
STARTCHAR MIDDLE DOT
ENCODING 183
SWIDTH 375 0
DWIDTH 6 0
BBX 6 13 0 -2
BITMAP
00
00
00
00
00
00
20
20
00
00
00
00
00
ENDCHAR
STARTCHAR CEDILLA
ENCODING 184
SWIDTH 375 0
DWIDTH 6 0
BBX 6 13 0 -2
BITMAP
00
00
00
00
00
00
00
00
00
00
00
10
20
ENDCHAR
STARTCHAR SUPERSCRIPT ONE
ENCODING 185
SWIDTH 375 0
DWIDTH 6 0
BBX 6 13 0 -2
BITMAP
00
20
60
20
20
00
00
00
00
00
00
00
00
ENDCHAR
STARTCHAR MASCULINE ORDINAL INDICATOR
ENCODING 186
SWIDTH 375 0
DWIDTH 6 0
BBX 6 13 0 -2
BITMAP
00
30
48
48
30
00
78
00
00
00
00
00
00
ENDCHAR
STARTCHAR RIGHT-POINSING DOUBLE ANGLE QUOTATION MARK
ENCODING 187
SWIDTH 375 0
DWIDTH 6 0
BBX 6 13 0 -2
BITMAP
00
00
00
00
00
00
90
48
24
48
90
00
00
ENDCHAR
STARTCHAR VULGAR FRACTION ON ONE QUARTER
ENCODING 188
SWIDTH 375 0
DWIDTH 6 0
BBX 6 13 0 -2
BITMAP
40
C0
40
44
48
10
20
48
98
28
3C
08
08
ENDCHAR
STARTCHAR VULGAR FRACTION ONE HALF
ENCODING 189
SWIDTH 375 0
DWIDTH 6 0
BBX 6 13 0 -2
BITMAP
40
C0
40
44
48
10
20
58
A4
04
08
10
3C
ENDCHAR
STARTCHAR VULGAR FRACTION THREE QUARTERS
ENCODING 190
SWIDTH 375 0
DWIDTH 6 0
BBX 6 13 0 -2
BITMAP
60
90
20
94
68
10
20
48
98
28
3C
08
08
ENDCHAR
STARTCHAR INVERTED QUESTION MARK
ENCODING 191
SWIDTH 375 0
DWIDTH 6 0
BBX 6 13 0 -2
BITMAP
00
20
20
00
00
20
60
80
88
88
70
00
00
ENDCHAR
STARTCHAR LATIN CAPITAL LETTER A WITH GRAVE
ENCODING 192
SWIDTH 375 0
DWIDTH 6 0
BBX 6 13 0 -2
BITMAP
40
20
F8
88
88
88
88
F8
88
88
88
00
00
ENDCHAR
STARTCHAR LATIN CAPITAL LETTER A
ENCODING 193
SWIDTH 375 0
DWIDTH 6 0
BBX 6 13 0 -2
BITMAP
10
20
F8
88
88
88
88
F8
88
88
88
00
00
ENDCHAR
STARTCHAR LATIN CAPITAL LETTER A WITH CIRCUMFLEX
ENCODING 194
SWIDTH 375 0
DWIDTH 6 0
BBX 6 13 0 -2
BITMAP
70
88
F8
88
88
88
88
F8
88
88
88
00
00
ENDCHAR
STARTCHAR LATIN CAPITAL LETTER A WITH TILDE
ENCODING 195
SWIDTH 375 0
DWIDTH 6 0
BBX 6 13 0 -2
BITMAP
28
50
F8
88
88
88
88
F8
88
88
88
00
00
ENDCHAR
STARTCHAR LATIN CAPITAL LETTER A WITH DIERESIS
ENCODING 196
SWIDTH 375 0
DWIDTH 6 0
BBX 6 13 0 -2
BITMAP
50
00
F8
88
88
88
88
F8
88
88
88
00
00
ENDCHAR
STARTCHAR LATIN CAPITAL LETTER A WITH RING ABOVE
ENCODING 197
SWIDTH 375 0
DWIDTH 6 0
BBX 6 13 0 -2
BITMAP
50
20
F8
88
88
88
88
F8
88
88
88
00
00
ENDCHAR
STARTCHAR LATIN CAPITAL LETTER AE
ENCODING 198
SWIDTH 375 0
DWIDTH 6 0
BBX 6 13 0 -2
BITMAP
00
00
FC
90
90
90
9C
F0
90
90
9C
00
00
ENDCHAR
STARTCHAR LATIN CAPITAL LETTER C WITH CEDILLA
ENCODING 199
SWIDTH 375 0
DWIDTH 6 0
BBX 6 13 0 -2
BITMAP
00
00
F8
88
80
80
80
80
80
88
F8
20
40
ENDCHAR
STARTCHAR LATIN CAPITAL LETTER E WITH GRAVE
ENCODING 200
SWIDTH 375 0
DWIDTH 6 0
BBX 6 13 0 -2
BITMAP
40
20
00
F8
80
80
F8
80
80
80
F8
00
00
ENDCHAR
STARTCHAR LATIN CAPITAL LETTER E WITH ACUTE
ENCODING 201
SWIDTH 375 0
DWIDTH 6 0
BBX 6 13 0 -2
BITMAP
10
20
00
F8
80
80
F8
80
80
80
F8
00
00
ENDCHAR
STARTCHAR LATIN CAPITAL LETTER E WITH CIRCUMFLEX
ENCODING 202
SWIDTH 375 0
DWIDTH 6 0
BBX 6 13 0 -2
BITMAP
20
50
00
F8
80
80
F8
80
80
80
F8
00
00
ENDCHAR
STARTCHAR LATIN CAPITAL LETTER E WITH DIERESIS
ENCODING 203
SWIDTH 375 0
DWIDTH 6 0
BBX 6 13 0 -2
BITMAP
50
50
00
F8
80
80
F8
80
80
80
F8
00
00
ENDCHAR
STARTCHAR LATIN CAPITAL LETTER I WITH GRAVE
ENCODING 204
SWIDTH 375 0
DWIDTH 6 0
BBX 6 13 0 -2
BITMAP
40
20
70
20
20
20
20
20
20
20
70
00
00
ENDCHAR
STARTCHAR LATIN CAPITAL LETTER I WITH ACUTE
ENCODING 205
SWIDTH 375 0
DWIDTH 6 0
BBX 6 13 0 -2
BITMAP
10
20
70
20
20
20
20
20
20
20
70
00
00
ENDCHAR
STARTCHAR LATIN CAPITAL LETTER I WITH CIRCUMFLEX
ENCODING 206
SWIDTH 375 0
DWIDTH 6 0
BBX 6 13 0 -2
BITMAP
20
50
70
20
20
20
20
20
20
20
70
00
00
ENDCHAR
STARTCHAR LATIN CAPITAL LETTER I WITH DIERESIS
ENCODING 207
SWIDTH 375 0
DWIDTH 6 0
BBX 6 13 0 -2
BITMAP
50
00
70
20
20
20
20
20
20
20
70
00
00
ENDCHAR
STARTCHAR LATIN CAPITAL LETTER ETH
ENCODING 208
SWIDTH 375 0
DWIDTH 6 0
BBX 6 13 0 -2
BITMAP
00
00
E0
90
88
88
C8
88
88
90
E0
00
00
ENDCHAR
STARTCHAR LATIN CAPITAL LETTER N WITH TILDE
ENCODING 209
SWIDTH 375 0
DWIDTH 6 0
BBX 6 13 0 -2
BITMAP
50
A0
C8
C8
A8
A8
98
98
88
88
88
00
00
ENDCHAR
STARTCHAR LATIN CAPITAL LETTER O WITH GRAVE
ENCODING 210
SWIDTH 375 0
DWIDTH 6 0
BBX 6 13 0 -2
BITMAP
40
20
F8
88
88
88
88
88
88
88
F8
00
00
ENDCHAR
STARTCHAR LATIN CAPITAL LETTER O WITH ACUTE
ENCODING 211
SWIDTH 375 0
DWIDTH 6 0
BBX 6 13 0 -2
BITMAP
10
20
F8
88
88
88
88
88
88
88
F8
00
00
ENDCHAR
STARTCHAR LATIN CAPITAL LETTER O WITH CIRCUMFLEX
ENCODING 212
SWIDTH 375 0
DWIDTH 6 0
BBX 6 13 0 -2
BITMAP
20
50
F8
88
88
88
88
88
88
88
F8
00
00
ENDCHAR
STARTCHAR LATIN CAPITAL LETTER O WITH TILDE
ENCODING 213
SWIDTH 375 0
DWIDTH 6 0
BBX 6 13 0 -2
BITMAP
50
A0
F8
88
88
88
88
88
88
88
F8
00
00
ENDCHAR
STARTCHAR LATIN CAPITAL LETTER O WITH DIERESIS
ENCODING 214
SWIDTH 375 0
DWIDTH 6 0
BBX 6 13 0 -2
BITMAP
50
00
F8
88
88
88
88
88
88
88
F8
00
00
ENDCHAR
STARTCHAR MULTIPLICATION SIGN
ENCODING 215
SWIDTH 375 0
DWIDTH 6 0
BBX 6 13 0 -2
BITMAP
00
00
00
00
88
50
20
50
88
00
00
00
00
ENDCHAR
STARTCHAR LATIN CAPITAL LETTER O WITH STROKE
ENCODING 216
SWIDTH 375 0
DWIDTH 6 0
BBX 6 13 0 -2
BITMAP
00
00
74
88
98
98
A8
C8
C8
88
70
00
00
ENDCHAR
STARTCHAR LATIN CAPITAL LETTER U WITH GRAVE
ENCODING 217
SWIDTH 375 0
DWIDTH 6 0
BBX 6 13 0 -2
BITMAP
40
20
88
88
88
88
88
88
88
88
F8
00
00
ENDCHAR
STARTCHAR LATIN CAPITAL LETTER U WITH ACUTE
ENCODING 218
SWIDTH 375 0
DWIDTH 6 0
BBX 6 13 0 -2
BITMAP
10
20
88
88
88
88
88
88
88
88
F8
00
00
ENDCHAR
STARTCHAR LATIN CAPITAL LETTER U WITH CIRCUMFLEX
ENCODING 219
SWIDTH 375 0
DWIDTH 6 0
BBX 6 13 0 -2
BITMAP
20
50
00
88
88
88
88
88
88
88
F8
00
00
ENDCHAR
STARTCHAR LATIN CAPITAL LETTER U WITH DIAERESIS
ENCODING 220
SWIDTH 375 0
DWIDTH 6 0
BBX 6 13 0 -2
BITMAP
50
00
88
88
88
88
88
88
88
88
F8
00
00
ENDCHAR
STARTCHAR LATIN CAPITAL LETTER Y WITH ACUTE
ENCODING 221
SWIDTH 375 0
DWIDTH 6 0
BBX 6 13 0 -2
BITMAP
10
20
88
88
88
F8
20
20
20
20
20
00
00
ENDCHAR
STARTCHAR LATIN CAPITAL LETTER THORN
ENCODING 222
SWIDTH 375 0
DWIDTH 6 0
BBX 6 13 0 -2
BITMAP
00
00
80
80
F0
88
88
88
88
F0
80
80
00
ENDCHAR
STARTCHAR LATIN SMALL LETTER SHARP S
ENCODING 223
SWIDTH 375 0
DWIDTH 6 0
BBX 6 13 0 -2
BITMAP
00
00
60
90
90
A0
B0
88
88
88
90
00
00
ENDCHAR
STARTCHAR LATIN SMALL LETTER A WITH
ENCODING 224
SWIDTH 375 0
DWIDTH 6 0
BBX 6 13 0 -2
BITMAP
00
00
00
00
F8
88
88
88
88
98
E8
00
00
ENDCHAR
STARTCHAR LATIN SMALL LETTER A WITH GRAVE
ENCODING 225
SWIDTH 375 0
DWIDTH 6 0
BBX 6 13 0 -2
BITMAP
00
40
20
00
F8
88
88
88
88
98
E8
00
00
ENDCHAR
STARTCHAR LATIN SMALL LETTER A WITH ACUTE
ENCODING 226
SWIDTH 375 0
DWIDTH 6 0
BBX 6 13 0 -2
BITMAP
00
10
20
00
F8
88
88
88
88
98
E8
00
00
ENDCHAR
STARTCHAR LATIN SMALL LETTER A WITH CIRCUMFLEX
ENCODING 227
SWIDTH 375 0
DWIDTH 6 0
BBX 6 13 0 -2
BITMAP
00
20
50
00
F8
88
88
88
88
98
E8
00
00
ENDCHAR
STARTCHAR LATIN SMALL LETTER A WITH TILDE
ENCODING 228
SWIDTH 375 0
DWIDTH 6 0
BBX 6 13 0 -2
BITMAP
00
28
50
00
F8
88
88
88
88
98
E8
00
00
ENDCHAR
STARTCHAR LATIN SMALL LETTER A WITH DIAERESIS
ENCODING 229
SWIDTH 375 0
DWIDTH 6 0
BBX 6 13 0 -2
BITMAP
00
50
50
00
F8
88
88
88
88
98
E8
00
00
ENDCHAR
STARTCHAR LATIN SMALL LETTER AE
ENCODING 230
SWIDTH 375 0
DWIDTH 6 0
BBX 6 13 0 -2
BITMAP
00
00
00
00
00
70
28
68
B0
A0
78
00
00
ENDCHAR
STARTCHAR LATIN SMALL LETTER C WITH CECEDILLA
ENCODING 231
SWIDTH 375 0
DWIDTH 6 0
BBX 6 13 0 -2
BITMAP
00
00
00
00
F8
88
80
80
80
88
F8
20
40
ENDCHAR
STARTCHAR LATIN SMALL LETTER E WITH GRAVE
ENCODING 232
SWIDTH 375 0
DWIDTH 6 0
BBX 6 13 0 -2
BITMAP
00
40
20
00
F8
88
88
F8
80
88
F8
00
00
ENDCHAR
STARTCHAR LATIN SMALL LETTER E WITH ACUTE
ENCODING 233
SWIDTH 375 0
DWIDTH 6 0
BBX 6 13 0 -2
BITMAP
00
10
20
00
F8
88
88
F8
80
88
F8
00
00
ENDCHAR
STARTCHAR LATIN SMALL LETTER E WITH CIRCUMFLEX
ENCODING 234
SWIDTH 375 0
DWIDTH 6 0
BBX 6 13 0 -2
BITMAP
00
20
50
00
F8
88
88
F8
80
88
F8
00
00
ENDCHAR
STARTCHAR LATIN SMALL LETTER E WITH DIAERESIS
ENCODING 235
SWIDTH 375 0
DWIDTH 6 0
BBX 6 13 0 -2
BITMAP
00
50
50
00
F8
88
88
F8
80
88
F8
00
00
ENDCHAR
STARTCHAR LATIN SMALL LETTER I WITH GRAVE
ENCODING 236
SWIDTH 375 0
DWIDTH 6 0
BBX 6 13 0 -2
BITMAP
00
40
20
00
70
20
20
20
20
20
70
00
00
ENDCHAR
STARTCHAR LATIN SMALL LETTER I WITH ACUTE
ENCODING 237
SWIDTH 375 0
DWIDTH 6 0
BBX 6 13 0 -2
BITMAP
00
10
20
00
70
20
20
20
20
20
70
00
00
ENDCHAR
STARTCHAR LATIN SMALL LETTER I WITH CIRCUMFLEX
ENCODING 238
SWIDTH 375 0
DWIDTH 6 0
BBX 6 13 0 -2
BITMAP
00
20
50
00
70
20
20
20
20
20
70
00
00
ENDCHAR
STARTCHAR LATIN SMALL LETTER I WITH DIAERESIS
ENCODING 239
SWIDTH 375 0
DWIDTH 6 0
BBX 6 13 0 -2
BITMAP
00
50
50
00
70
20
20
20
20
20
70
00
00
ENDCHAR
STARTCHAR LATIN SMALL LETTER ETH
ENCODING 240
SWIDTH 375 0
DWIDTH 6 0
BBX 6 13 0 -2
BITMAP
00
90
60
A0
30
50
88
88
88
88
70
00
00
ENDCHAR
STARTCHAR LATIN SMALL LETTER N WITH TILDE
ENCODING 241
SWIDTH 375 0
DWIDTH 6 0
BBX 6 13 0 -2
BITMAP
00
28
50
00
F8
88
88
88
88
88
88
00
00
ENDCHAR
STARTCHAR LATIN SMALL LETTER O WITH GRAVE
ENCODING 242
SWIDTH 375 0
DWIDTH 6 0
BBX 6 13 0 -2
BITMAP
00
40
20
00
F8
88
88
88
88
88
F8
00
00
ENDCHAR
STARTCHAR LATIN SMALL LETTER O WITH ACUTE
ENCODING 243
SWIDTH 375 0
DWIDTH 6 0
BBX 6 13 0 -2
BITMAP
00
10
20
00
F8
88
88
88
88
88
F8
00
00
ENDCHAR
STARTCHAR LATIN SMALL LETTER O WITH CIRCUMFLEX
ENCODING 244
SWIDTH 375 0
DWIDTH 6 0
BBX 6 13 0 -2
BITMAP
00
20
50
00
F8
88
88
88
88
88
F8
00
00
ENDCHAR
STARTCHAR LATIN SMALL LETTER O WITH TILDE
ENCODING 245
SWIDTH 375 0
DWIDTH 6 0
BBX 6 13 0 -2
BITMAP
00
28
50
00
F8
88
88
88
88
88
F8
00
00
ENDCHAR
STARTCHAR LATIN SMALL LETTER O WITH DIAERESIS
ENCODING 246
SWIDTH 375 0
DWIDTH 6 0
BBX 6 13 0 -2
BITMAP
00
50
50
00
F8
88
88
88
88
88
F8
00
00
ENDCHAR
STARTCHAR DIVISION SIGN
ENCODING 247
SWIDTH 375 0
DWIDTH 6 0
BBX 6 13 0 -2
BITMAP
00
00
00
20
20
00
F8
00
20
20
00
00
00
ENDCHAR
STARTCHAR LATIN SMALL LETTER O WITH STROKE
ENCODING 248
SWIDTH 375 0
DWIDTH 6 0
BBX 6 13 0 -2
BITMAP
00
00
00
00
74
88
98
A8
C8
88
70
00
00
ENDCHAR
STARTCHAR LATIN SMALL LETTER U WITH GRAVE
ENCODING 249
SWIDTH 375 0
DWIDTH 6 0
BBX 6 13 0 -2
BITMAP
00
40
20
00
88
88
88
88
88
88
F8
00
00
ENDCHAR
STARTCHAR LATIN SMALL LETTER U WITH ACUTE
ENCODING 250
SWIDTH 375 0
DWIDTH 6 0
BBX 6 13 0 -2
BITMAP
00
10
20
00
88
88
88
88
88
88
F8
00
00
ENDCHAR
STARTCHAR LATIN SMALL LETTER U WITH CIRCUMFLEX
ENCODING 251
SWIDTH 375 0
DWIDTH 6 0
BBX 6 13 0 -2
BITMAP
00
20
50
00
88
88
88
88
88
88
F8
00
00
ENDCHAR
STARTCHAR LATIN SMALL LETTER U WITH DIAERESIS
ENCODING 252
SWIDTH 375 0
DWIDTH 6 0
BBX 6 13 0 -2
BITMAP
00
50
50
00
88
88
88
88
88
88
F8
00
00
ENDCHAR
STARTCHAR LATIN SMALL LETTER Y WITH ACUTE
ENCODING 253
SWIDTH 375 0
DWIDTH 6 0
BBX 6 13 0 -2
BITMAP
00
10
20
00
88
88
88
88
88
88
F8
08
78
ENDCHAR
STARTCHAR LATIN SMALL LETTER THORN
ENCODING 254
SWIDTH 375 0
DWIDTH 6 0
BBX 6 13 0 -2
BITMAP
00
80
80
B0
C8
88
88
88
88
C8
B0
80
80
ENDCHAR
STARTCHAR LATIN SMALL LETTER Y WITH DIAERESIS
ENCODING 255
SWIDTH 375 0
DWIDTH 6 0
BBX 6 13 0 -2
BITMAP
00
50
50
00
88
88
88
88
88
88
F8
08
78
ENDCHAR
STARTCHAR LEFT ARROW
ENCODING 8592
SWIDTH 375 0
DWIDTH 6 0
BBX 6 13 0 -2
BITMAP
00
00
00
00
20
60
F8
60
20
00
00
00
00
ENDCHAR
STARTCHAR UP ARROW
ENCODING 8593
SWIDTH 375 0
DWIDTH 6 0
BBX 6 13 0 -2
BITMAP
00
00
00
00
20
70
F8
20
20
20
20
00
00
ENDCHAR
STARTCHAR RIGHT ARROW
ENCODING 8594
SWIDTH 375 0
DWIDTH 6 0
BBX 6 13 0 -2
BITMAP
00
00
00
00
00
20
30
F8
30
20
00
00
00
ENDCHAR
STARTCHAR DOWN ARROW
ENCODING 8595
SWIDTH 375 0
DWIDTH 6 0
BBX 6 13 0 -2
BITMAP
00
00
00
00
20
20
20
20
F8
70
20
00
00
ENDCHAR
STARTCHAR BRANCH INDICATOR
ENCODING 57504
SWIDTH 375 0
DWIDTH 6 0
BBX 6 13 0 -2
BITMAP
80
90
B8
FC
90
90
90
30
60
C0
C0
C0
C0
ENDCHAR
STARTCHAR LINE
ENCODING 57505
SWIDTH 375 0
DWIDTH 6 0
BBX 6 13 0 -2
BITMAP
00
80
80
80
80
F0
00
44
64
54
4C
44
00
ENDCHAR
STARTCHAR PADLOCK
ENCODING 57506
SWIDTH 375 0
DWIDTH 6 0
BBX 6 13 0 -2
BITMAP
00
30
48
48
48
48
FC
FC
FC
FC
FC
FC
00
ENDCHAR
STARTCHAR RIGHT FILLED TRIANGLE
ENCODING 57520
SWIDTH 375 0
DWIDTH 6 0
BBX 6 13 0 -2
BITMAP
80
C0
E0
F0
F8
FC
FC
FC
F8
F0
E0
C0
80
ENDCHAR
STARTCHAR RIGHT TRIANGLE
ENCODING 57521
SWIDTH 375 0
DWIDTH 6 0
BBX 6 13 0 -2
BITMAP
80
40
20
10
08
04
04
04
08
10
20
40
80
ENDCHAR
STARTCHAR LEFT FILLED TRIANGLE
ENCODING 57522
SWIDTH 375 0
DWIDTH 6 0
BBX 6 13 0 -2
BITMAP
04
0C
1C
3C
7C
FC
FC
FC
7C
3C
1C
0C
04
ENDCHAR
STARTCHAR LEFT TRIANGLE
ENCODING 57523
SWIDTH 375 0
DWIDTH 6 0
BBX 6 13 0 -2
BITMAP
04
08
10
20
40
80
80
80
40
20
10
08
04
ENDCHAR
ENDFONT
